<mxfile host="app.diagrams.net" modified="2023-07-03T18:37:35.593Z" agent="Mozilla/5.0 (Windows NT 10.0; Win64; x64) AppleWebKit/537.36 (KHTML, like Gecko) Chrome/114.0.0.0 Safari/537.36" version="21.5.2" etag="aGokf7OpFZYv1jjKGMW2" type="github">
  <diagram name="PÃ¡gina-1" id="rF5m19c98hvcgDIDU0kr">
    <mxGraphModel>
      <root>
        <mxCell id="0" />
        <mxCell id="1" parent="0" />
      </root>
    </mxGraphModel>
  </diagram>
</mxfile>
